{"title":"Comedy Nights With Kapil 9th March 2014 - {BibekBohidar}","uid":9783561,"size":304222428,"categoryP":"video","categoryS":"tv_shows","magnet":"?xt=urn:btih:98a0a86d965de2a77c24d8fcda666bbac87e9104&amp;dn=Comedy+Nights+With+Kapil+9th+March+2014+-+%7BBibekBohidar%7D&amp;tr=udp%3A%2F%2Ftracker.openbittorrent.com%3A80&amp;tr=udp%3A%2F%2Fopen.demonii.com%3A1337&amp;tr=udp%3A%2F%2Ftracker.coppersurfer.tk%3A6969&amp;tr=udp%3A%2F%2Fexodus.desync.com%3A6969","seeders":2,"leechers":0,"uploader":"MinTRoX","files":1,"time":1395133791,"description":"Format : MPEG-4\nFormat profile : Base Media / Version 2\nCodec ID : mp42\nFile size : 290 MiB\nDuration : 59mn 59s\nOverall bit rate mode : Variable\nOverall bit rate : 676 Kbps\nEncoded date : UTC 2014-03-10 20:40:08\nTagged date : UTC 2014-03-10 20:40:08\ngsst : 0\ngstd : 3600021\ngssd : BADC234C1HH1395126794313190\ngshh : r4---sn-cvh7zn7k.googlevideo.com\n\nVideo\nID : 1\nFormat : AVC\nFormat/Info : Advanced Video Codec\nFormat profile : &lt;a class=&quot;__cf_email__&quot; href=&quot;/cdn-cgi/l/email-protection&quot; data-cfemail=&quot;32705341575e5b5c57727e011c02&quot;&gt;[email&amp;#160;protected]&lt;/a&gt;&lt;script cf-hash='f9e31' type=&quot;text/javascript&quot;&gt;\n/* &lt;![CDATA[ */!function(){try{var t=&quot;currentScript&quot;in document?document.currentScript:function(){for(var t=document.getElementsByTagName(&quot;script&quot;),e=t.length;e--;)if(t[e].getAttribute(&quot;cf-hash&quot;))return t[e]}();if(t&amp;&amp;t.previousSibling){var e,r,n,i,c=t.previousSibling,a=c.getAttribute(&quot;data-cfemail&quot;);if(a){for(e=&quot;&quot;,r=parseInt(a.substr(0,2),16),n=2;a.length-n;n+=2)i=parseInt(a.substr(n,2),16)^r,e+=String.fromCharCode(i);e=document.createTextNode(e),c.parentNode.replaceChild(e,c)}}}catch(u){}}();/* ]]&gt; */&lt;/script&gt;\nFormat settings, CABAC : No\nFormat settings, ReFrames : 1 frame\nFormat settings, GOP : M=1, N=60\nCodec ID : avc1\nCodec ID/Info : Advanced Video Coding\nDuration : 59mn 59s\nBit rate : 578 Kbps\nMaximum bit rate : 1 395 Kbps\nWidth : 640 pixels\nHeight : 360 pixels\nDisplay aspect ratio : 16:9\nOriginal display aspect ratio : 16:9\nFrame rate mode : Constant\nFrame rate : 25.000 fps\nColor space : YUV\nChroma subsampling : 4:2:0\nBit depth : 8 bits\nScan type : Progressive\nBits/(Pixel*Frame) : 0.100\nStream size : 248 MiB (85%)\nTagged date : UTC 2014-03-10 20:40:56\n\nAudio\nID : 2\nFormat : AAC\nFormat/Info : Advanced Audio Codec\nFormat profile : LC\nCodec ID : 40\nDuration : 59mn 59s\nBit rate mode : Variable\nBit rate : 96.0 Kbps\nMaximum bit rate : 102 Kbps\nChannel count : 2 channels\nChannel positions : Front: L R\nSampling rate : 44.1 KHz\nCompression mode : Lossy\nStream size : 41.2 MiB (14%)\nTitle : IsoMedia File Produced by Google, 5-11-2011\nEncoded date : UTC 2014-03-10 20:40:38\nTagged date : UTC 2014-03-10 20:40:56","torrent":{"xt":"urn:btih:98a0a86d965de2a77c24d8fcda666bbac87e9104","amp;dn":"Comedy+Nights+With+Kapil+9th+March+2014+-+%7BBibekBohidar%7D","amp;tr":["udp%3A%2F%2Ftracker.openbittorrent.com%3A80","udp%3A%2F%2Fopen.demonii.com%3A1337","udp%3A%2F%2Ftracker.coppersurfer.tk%3A6969","udp%3A%2F%2Fexodus.desync.com%3A6969"],"infoHash":"98a0a86d965de2a77c24d8fcda666bbac87e9104","infoHashBuffer":{"type":"Buffer","data":[152,160,168,109,150,93,226,167,124,36,216,252,218,102,107,186,200,126,145,4]},"announce":[],"urlList":[]}}